<svg viewBox="0 0 100 51" xmlns="http://www.w3.org/2000/svg" xml:space="preserve" style="fill-rule:evenodd;clip-rule:evenodd;stroke-linejoin:round;stroke-miterlimit:2">
  <path d="M344.583 891.39c.097.12 56.999 18.44 56.999 18.44s-1.332 16.074-23.999 32.422c-.072.142-92.998 58.488-92.998 58.488l-15.6 10.18s-12.818 6.13-15 30.51c.493.75 121.49.14 121.49.14h69.306s-4.531-4.48-10.199-14.76c-.171.23-27 0-27 0v-9.54h22.8s-13.318-24.525-4.2-66.117c5.347-23.126 19.199-44.503 19.199-44.503l-37.199-.64v-9.53h44.999s13.08-13.59 12.6-13.35c-.48.23-164.997 0-164.997 0s-12.77-1.09-17.399 12.71c-1.58 7.48-6 27.339-6 27.339h-60.599s5.79-26.379 8.4-41.329c2.711-14.73 19.919-29.78 34.799-30.51.197.06 55.199 0 55.199 0h226.195s39.039-1.5 65.451 26.88c29.265 32.64 24.865 70.203 23.348 86.284-2.494 26.427-30.83 102.436-109.798 109.356H186.269l11.917-58.49s2.395-19.831 22.8-31.793c16.756-10.183 108.398-67.217 108.398-67.217s12.363-8.63 15.199-24.97m251.987-11.2c36.033 34.56 34.248 98.954-3.985 143.72-38.232 44.76-98.527 53.05-134.561 18.49-36.034-34.55-34.249-98.951 3.984-143.72 38.233-44.76 98.528-53.05 134.562-18.49m-14.577 17.07c28.452 27.28 27.042 78.128-3.146 113.47-30.188 35.35-77.795 41.89-106.247 14.61-28.451-27.288-27.042-78.136 3.146-113.48 30.188-35.35 77.796-41.89 106.247-14.6m-1.052 9.26c23.828 26.577 18.868 72.623-11.07 102.76-29.938 30.14-73.59 33.02-97.418 6.45-23.829-26.584-18.869-72.631 11.069-102.77 29.938-30.13 73.59-33.02 97.419-6.44m-4.612 4.64c21.802 24.319 17.264 66.451-10.129 94.03-27.393 27.57-67.333 30.21-89.136 5.89-21.802-24.317-17.264-66.448 10.129-94.02 27.393-27.58 67.333-30.22 89.136-5.9m-57.149 67.967-27.6 33.063s20.436 17.92 56.399-1.27c.291-.23-16.799-31.793-16.799-31.793s-9.067 2.053-12 0m-41.999-30.517s-16.176 30.941 7.8 56.58c.286 0 26.999-32.421 26.999-32.421s-3.945-6.343-1.8-12.715c.055-.03-32.999-11.444-32.999-11.444m67.798 12.079s-1.375 6.863-6 12.716c.342.358 16.8 31.785 16.8 31.785s26.508-18.951 26.399-55.944c-.046.055-37.199 11.443-37.199 11.443m-10.13-5.64c2.548 3.33 1.334 8.854-2.709 12.327s-9.395 3.59-11.943.26-1.334-8.854 2.709-12.328c4.043-3.473 9.395-3.589 11.943-.259m-.07-10.89s5.536 1.868 7.8 6.994c.349-.12 37.8-12.08 37.8-12.08s-5.801-32.663-39.6-35.603c-.037.07-6 40.689-6 40.689m-20.399 6.994-32.999-12.08s11.344-29.003 49.199-35.603c-.578.06-5.4 40.054-5.4 40.054s-6.615.408-10.8 7.629" style="fill:#fff" transform="translate(-41.694 -190.194)scale(.22468)"/>
</svg>
